<svg width="2350" height="884" viewBox="0 0 2350 884" fill="none" xmlns="http://www.w3.org/2000/svg">
<path d="M130 382C119.067 382 110.667 378.8 104.8 372.4C98.9333 366 96 356.8 96 344.8V166C96 151.6 99.4667 140.533 106.4 132.8C113.6 125.067 123.867 121.2 137.2 121.2H205.2C242.267 121.2 270.533 129.2 290 145.2C309.467 160.933 319.2 184.267 319.2 215.2C319.2 245.867 309.733 268.933 290.8 284.4C271.867 299.867 244.133 307.6 207.6 307.6H176.8V344.8C176.8 356.8 173.733 366 167.6 372.4C161.733 378.8 153.067 382 141.6 382H130ZM204.4 248.8C216.4 248.8 225.467 246 231.6 240.4C238 234.533 241.2 226.267 241.2 215.6C241.2 204.667 237.867 196.267 231.2 190.4C224.8 184.533 215.333 181.6 202.8 181.6H175.6V248.8H204.4ZM370.047 383.6C363.114 383.6 356.18 382.133 349.247 379.2C342.58 376 337.247 372.4 333.247 368.4C329.247 364.4 327.78 361.2 328.847 358.8L412.047 141.2C414.18 134 418.98 128.533 426.447 124.8C433.914 121.067 446.18 119.2 463.247 119.2C480.047 119.2 491.914 121.067 498.847 124.8C505.78 128.533 510.447 134 512.847 141.2L599.647 358C600.714 360.4 599.114 363.733 594.847 368C590.847 372 585.38 375.6 578.447 378.8C571.514 381.733 564.314 383.2 556.847 383.2C536.047 383.2 520.714 370.667 510.847 345.6L503.647 326.8H421.247L413.647 346.4C409.114 359.467 402.98 368.933 395.247 374.8C387.78 380.667 379.38 383.6 370.047 383.6ZM489.247 268.8L462.047 194L434.447 268.8H489.247ZM625.894 366.4C613.094 357.867 606.694 346.533 606.694 332.4C606.694 326.533 608.56 320.667 612.294 314.8C616.027 308.667 620.16 303.6 624.694 299.6C629.227 295.333 632.027 293.6 633.094 294.4C641.627 302.4 653.094 309.333 667.494 315.2C682.16 321.067 696.027 324 709.094 324C732.827 324 744.694 317.333 744.694 304C744.694 298.933 742.827 295.067 739.094 292.4C735.36 289.467 730.827 287.333 725.494 286C720.427 284.667 711.627 282.667 699.094 280C672.694 274.4 651.627 265.867 635.894 254.4C620.427 242.667 612.694 224.667 612.694 200.4C612.694 173.733 622.16 152.933 641.094 138C660.294 123.067 687.494 115.6 722.694 115.6C755.76 115.6 781.227 121.2 799.094 132.4C812.96 140.933 819.894 151.733 819.894 164.8C819.894 171.467 817.76 178 813.494 184.4C809.494 190.533 804.96 195.733 799.894 200C795.094 204 792.294 205.733 791.494 205.2C782.694 196.933 772.16 190.267 759.894 185.2C747.627 179.867 735.494 177.2 723.494 177.2C700.56 177.2 689.094 183.867 689.094 197.2C689.094 202.8 691.76 206.933 697.094 209.6C702.694 212 711.894 214.533 724.694 217.2L736.294 219.6C764.56 225.467 786.56 234.667 802.294 247.2C818.027 259.467 825.894 276.667 825.894 298.8C825.894 327.067 816.027 348.667 796.294 363.6C776.827 378.267 747.894 385.6 709.494 385.6C672.16 385.6 644.294 379.2 625.894 366.4ZM859.097 366.4C846.297 357.867 839.897 346.533 839.897 332.4C839.897 326.533 841.764 320.667 845.497 314.8C849.23 308.667 853.364 303.6 857.897 299.6C862.43 295.333 865.23 293.6 866.297 294.4C874.83 302.4 886.297 309.333 900.697 315.2C915.364 321.067 929.23 324 942.297 324C966.03 324 977.897 317.333 977.897 304C977.897 298.933 976.03 295.067 972.297 292.4C968.564 289.467 964.03 287.333 958.697 286C953.63 284.667 944.83 282.667 932.297 280C905.897 274.4 884.83 265.867 869.097 254.4C853.63 242.667 845.897 224.667 845.897 200.4C845.897 173.733 855.364 152.933 874.297 138C893.497 123.067 920.697 115.6 955.897 115.6C988.964 115.6 1014.43 121.2 1032.3 132.4C1046.16 140.933 1053.1 151.733 1053.1 164.8C1053.1 171.467 1050.96 178 1046.7 184.4C1042.7 190.533 1038.16 195.733 1033.1 200C1028.3 204 1025.5 205.733 1024.7 205.2C1015.9 196.933 1005.36 190.267 993.097 185.2C980.83 179.867 968.697 177.2 956.697 177.2C933.764 177.2 922.297 183.867 922.297 197.2C922.297 202.8 924.964 206.933 930.297 209.6C935.897 212 945.097 214.533 957.897 217.2L969.497 219.6C997.764 225.467 1019.76 234.667 1035.5 247.2C1051.23 259.467 1059.1 276.667 1059.1 298.8C1059.1 327.067 1049.23 348.667 1029.5 363.6C1010.03 378.267 981.097 385.6 942.697 385.6C905.364 385.6 877.497 379.2 859.097 366.4ZM1182.35 382.4C1169.28 382.4 1159.01 380.267 1151.55 376C1144.35 371.467 1139.15 363.467 1135.95 352L1075.55 147.2C1075.28 145.6 1077.15 142.533 1081.15 138C1085.15 133.467 1090.88 129.333 1098.35 125.6C1106.08 121.867 1115.15 120 1125.55 120C1135.15 120 1144.08 123.333 1152.35 130C1160.61 136.4 1166.21 147.333 1169.15 162.8L1190.35 274.8L1217.55 173.2C1219.68 163.6 1224.61 156.4 1232.35 151.6C1240.35 146.533 1249.95 144 1261.15 144C1271.81 144 1281.15 146.667 1289.15 152C1297.15 157.067 1302.21 164.133 1304.35 173.2L1331.15 274.4L1352.35 161.6C1355.01 147.2 1360.35 136.667 1368.35 130C1376.35 123.333 1385.55 120 1395.95 120C1405.55 120 1413.95 121.867 1421.15 125.6C1428.35 129.067 1433.81 133.2 1437.55 138C1441.55 142.533 1443.28 145.6 1442.75 147.2L1384.35 352C1381.15 362.933 1375.68 370.8 1367.95 375.6C1360.21 380.133 1349.95 382.4 1337.15 382.4C1324.35 382.4 1314.08 380.133 1306.35 375.6C1298.61 370.8 1293.15 362.8 1289.95 351.6L1259.95 244.8L1230.35 351.6C1227.41 362.8 1221.81 370.8 1213.55 375.6C1205.55 380.133 1195.15 382.4 1182.35 382.4ZM1590.03 385.6C1563.89 385.6 1540.43 379.867 1519.63 368.4C1499.09 356.933 1482.96 340.933 1471.23 320.4C1459.76 299.867 1454.03 276.667 1454.03 250.8C1454.03 224.933 1459.89 201.733 1471.63 181.2C1483.36 160.667 1499.49 144.667 1520.03 133.2C1540.83 121.467 1564.16 115.6 1590.03 115.6C1616.16 115.6 1639.49 121.333 1660.03 132.8C1680.83 144.267 1696.96 160.267 1708.43 180.8C1720.16 201.333 1726.03 224.533 1726.03 250.4C1726.03 276.533 1720.16 299.867 1708.43 320.4C1696.96 340.933 1680.83 356.933 1660.03 368.4C1639.49 379.867 1616.16 385.6 1590.03 385.6ZM1590.03 314C1607.36 314 1621.09 308.267 1631.23 296.8C1641.63 285.333 1646.83 270 1646.83 250.8C1646.83 231.333 1641.63 215.733 1631.23 204C1620.83 192.267 1607.09 186.4 1590.03 186.4C1572.69 186.4 1558.83 192.133 1548.43 203.6C1538.29 215.067 1533.23 230.667 1533.23 250.4C1533.23 269.6 1538.43 285.067 1548.83 296.8C1559.23 308.267 1572.96 314 1590.03 314ZM1788.59 382C1777.66 382 1769.26 378 1763.39 370C1757.53 361.733 1754.59 350.267 1754.59 335.6V166C1754.59 151.333 1758.06 140.267 1764.99 132.8C1772.19 125.067 1782.46 121.2 1795.79 121.2H1875.39C1910.86 121.2 1937.53 128.4 1955.39 142.8C1973.53 157.2 1982.59 178.4 1982.59 206.4C1982.59 223.733 1978.46 238.667 1970.19 251.2C1962.19 263.733 1950.33 272.933 1934.59 278.8L1926.19 281.2L1985.39 354.4C1986.46 355.733 1985.26 358.8 1981.79 363.6C1978.33 368.133 1972.99 372.4 1965.79 376.4C1958.59 380.133 1949.79 382 1939.39 382C1927.66 382 1917.93 379.467 1910.19 374.4C1902.73 369.067 1894.59 360.267 1885.79 348L1846.19 296.8H1834.99V344.8C1834.99 356.8 1831.93 366 1825.79 372.4C1819.93 378.8 1811.26 382 1799.79 382H1788.59ZM1866.59 242.8C1878.33 242.8 1887.26 240.133 1893.39 234.8C1899.53 229.467 1902.59 222 1902.59 212.4C1902.59 192.133 1890.46 182 1866.19 182H1833.79V242.8H1866.59ZM2013.58 166C2013.58 151.867 2017.44 140.933 2025.18 133.2C2032.91 125.2 2042.91 121.2 2055.18 121.2H2123.58C2151.58 121.2 2175.84 126.4 2196.38 136.8C2216.91 147.2 2232.64 162.133 2243.58 181.6C2254.78 200.8 2260.38 223.467 2260.38 249.6C2260.38 276 2254.64 299.067 2243.18 318.8C2231.98 338.267 2215.98 353.333 2195.18 364C2174.38 374.667 2149.98 380 2121.98 380H2058.38C2045.84 380 2035.18 375.733 2026.38 367.2C2017.84 358.667 2013.58 348.267 2013.58 336V166ZM2119.98 312C2138.64 312 2153.44 306.533 2164.38 295.6C2175.58 284.4 2181.18 269.067 2181.18 249.6C2181.18 230.4 2175.71 215.6 2164.78 205.2C2154.11 194.533 2139.44 189.2 2120.78 189.2H2093.18V312H2119.98Z" fill="white"/>
<path d="M249.6 615.6C260.533 615.6 267.867 618.267 271.6 623.6C275.333 628.667 277.2 637.333 277.2 649.6V758C277.2 759.333 274.267 761.067 268.4 763.2C262.8 765.067 256.667 766 250 766C231.333 766 219.067 756.667 213.2 738L210.8 731.2C204.133 742.667 194.267 751.733 181.2 758.4C168.4 765.067 152.933 768.4 134.8 768.4C111.333 768.4 90.4 762.667 72 751.2C53.6 739.733 39.2 723.867 28.8 703.6C18.6667 683.333 13.6 660.4 13.6 634.8C13.6 608.667 19.4667 585.333 31.2 564.8C42.9333 544.267 59.4667 528.267 80.8 516.8C102.133 505.333 126.667 499.6 154.4 499.6C185.867 499.6 210.933 505.333 229.6 516.8C238.4 521.867 245.067 528.133 249.6 535.6C254.133 542.8 256.4 550.667 256.4 559.2C256.4 568 253.467 575.333 247.6 581.2C241.733 587.067 235.2 591.333 228 594C221.067 596.4 217.067 597.067 216 596C209.333 586.933 200.933 580 190.8 575.2C180.933 570.4 170.4 568 159.2 568C147.2 568 136.267 570.933 126.4 576.8C116.533 582.667 108.667 590.933 102.8 601.6C97.2 612.267 94.4 624.533 94.4 638.4C94.4 659.467 100 676.4 111.2 689.2C122.667 702 137.467 708.4 155.6 708.4C166.8 708.4 176.533 706.133 184.8 701.6C193.067 697.067 198.667 690.933 201.6 683.2C202.667 680.267 203.333 677.333 203.6 674.4H179.6C166.267 674.4 156.667 672.533 150.8 668.8C144.933 664.8 142 657.467 142 646.8V643.2C142 632.267 144.933 624.933 150.8 621.2C156.667 617.467 166.267 615.6 179.6 615.6H249.6ZM352.559 764C339.226 764 328.959 760.267 321.759 752.8C314.826 745.333 311.359 734.4 311.359 720V550C311.359 535.333 314.826 524.267 321.759 516.8C328.959 509.067 339.226 505.2 352.559 505.2H489.359C501.893 505.2 511.093 507.733 516.959 512.8C523.093 517.867 526.159 525.733 526.159 536.4V538.4C526.159 549.333 523.226 557.2 517.359 562C511.493 566.8 502.159 569.2 489.359 569.2H391.759V603.2H456.559C469.626 603.2 479.093 605.467 484.959 610C490.826 614.267 493.759 621.333 493.759 631.2V632.4C493.759 643.067 490.826 650.8 484.959 655.6C479.093 660.133 469.626 662.4 456.559 662.4H391.759V700.8H490.959C504.026 700.8 513.493 703.067 519.359 707.6C525.226 711.867 528.159 719.2 528.159 729.6V731.6C528.159 742.533 525.093 750.667 518.959 756C513.093 761.333 503.759 764 490.959 764H352.559ZM588.319 766C577.385 766 568.985 762.933 563.119 756.8C557.519 750.4 554.719 741.067 554.719 728.8V540.4C554.719 528.133 557.519 518.933 563.119 512.8C568.985 506.4 577.119 503.2 587.519 503.2H595.119C604.185 503.2 610.985 504.533 615.519 507.2C620.052 509.867 625.252 514.8 631.119 522L723.119 642.4V540.4C723.119 528.133 726.052 518.933 731.919 512.8C737.785 506.4 746.452 503.2 757.919 503.2H765.119C776.052 503.2 784.319 506.4 789.919 512.8C795.785 518.933 798.719 528.133 798.719 540.4V728.8C798.719 741.067 795.785 750.4 789.919 756.8C784.319 762.933 776.319 766 765.919 766H759.519C750.452 766 743.652 764.8 739.119 762.4C734.852 760 729.919 755.333 724.319 748.4L630.319 626.4V728.8C630.319 741.067 627.385 750.4 621.519 756.8C615.652 762.933 606.985 766 595.519 766H588.319ZM875.997 764C862.664 764 852.397 760.267 845.197 752.8C838.264 745.333 834.797 734.4 834.797 720V550C834.797 535.333 838.264 524.267 845.197 516.8C852.397 509.067 862.664 505.2 875.997 505.2H1012.8C1025.33 505.2 1034.53 507.733 1040.4 512.8C1046.53 517.867 1049.6 525.733 1049.6 536.4V538.4C1049.6 549.333 1046.66 557.2 1040.8 562C1034.93 566.8 1025.6 569.2 1012.8 569.2H915.197V603.2H979.997C993.064 603.2 1002.53 605.467 1008.4 610C1014.26 614.267 1017.2 621.333 1017.2 631.2V632.4C1017.2 643.067 1014.26 650.8 1008.4 655.6C1002.53 660.133 993.064 662.4 979.997 662.4H915.197V700.8H1014.4C1027.46 700.8 1036.93 703.067 1042.8 707.6C1048.66 711.867 1051.6 719.2 1051.6 729.6V731.6C1051.6 742.533 1048.53 750.667 1042.4 756C1036.53 761.333 1027.2 764 1014.4 764H875.997ZM1112.16 766C1101.22 766 1092.82 762 1086.96 754C1081.09 745.733 1078.16 734.267 1078.16 719.6V550C1078.16 535.333 1081.62 524.267 1088.56 516.8C1095.76 509.067 1106.02 505.2 1119.36 505.2H1198.96C1234.42 505.2 1261.09 512.4 1278.96 526.8C1297.09 541.2 1306.16 562.4 1306.16 590.4C1306.16 607.733 1302.02 622.667 1293.76 635.2C1285.76 647.733 1273.89 656.933 1258.16 662.8L1249.76 665.2L1308.96 738.4C1310.02 739.733 1308.82 742.8 1305.36 747.6C1301.89 752.133 1296.56 756.4 1289.36 760.4C1282.16 764.133 1273.36 766 1262.96 766C1251.22 766 1241.49 763.467 1233.76 758.4C1226.29 753.067 1218.16 744.267 1209.36 732L1169.76 680.8H1158.56V728.8C1158.56 740.8 1155.49 750 1149.36 756.4C1143.49 762.8 1134.82 766 1123.36 766H1112.16ZM1190.16 626.8C1201.89 626.8 1210.82 624.133 1216.96 618.8C1223.09 613.467 1226.16 606 1226.16 596.4C1226.16 576.133 1214.02 566 1189.76 566H1157.36V626.8H1190.16ZM1360.41 767.6C1353.47 767.6 1346.54 766.133 1339.61 763.2C1332.94 760 1327.61 756.4 1323.61 752.4C1319.61 748.4 1318.14 745.2 1319.21 742.8L1402.41 525.2C1404.54 518 1409.34 512.533 1416.81 508.8C1424.27 505.067 1436.54 503.2 1453.61 503.2C1470.41 503.2 1482.27 505.067 1489.21 508.8C1496.14 512.533 1500.81 518 1503.21 525.2L1590.01 742C1591.07 744.4 1589.47 747.733 1585.21 752C1581.21 756 1575.74 759.6 1568.81 762.8C1561.87 765.733 1554.67 767.2 1547.21 767.2C1526.41 767.2 1511.07 754.667 1501.21 729.6L1494.01 710.8H1411.61L1404.01 730.4C1399.47 743.467 1393.34 752.933 1385.61 758.8C1378.14 764.667 1369.74 767.6 1360.41 767.6ZM1479.61 652.8L1452.41 578L1424.81 652.8H1479.61ZM1644.93 574.8H1602.13C1590.13 574.8 1580.93 571.867 1574.53 566C1568.39 560.133 1565.33 551.467 1565.33 540V538.4C1565.33 527.467 1568.39 519.2 1574.53 513.6C1580.93 508 1590.13 505.2 1602.13 505.2H1766.93C1791.73 505.2 1804.13 516.267 1804.13 538.4V540C1804.13 563.2 1791.73 574.8 1766.93 574.8H1725.33V728.8C1725.33 740.8 1722.26 750 1716.13 756.4C1709.99 762.8 1701.19 766 1689.73 766H1678.13C1655.99 766 1644.93 753.6 1644.93 728.8V574.8ZM1944.06 769.6C1917.92 769.6 1894.46 763.867 1873.66 752.4C1853.12 740.933 1836.99 724.933 1825.26 704.4C1813.79 683.867 1808.06 660.667 1808.06 634.8C1808.06 608.933 1813.92 585.733 1825.66 565.2C1837.39 544.667 1853.52 528.667 1874.06 517.2C1894.86 505.467 1918.19 499.6 1944.06 499.6C1970.19 499.6 1993.52 505.333 2014.06 516.8C2034.86 528.267 2050.99 544.267 2062.46 564.8C2074.19 585.333 2080.06 608.533 2080.06 634.4C2080.06 660.533 2074.19 683.867 2062.46 704.4C2050.99 724.933 2034.86 740.933 2014.06 752.4C1993.52 763.867 1970.19 769.6 1944.06 769.6ZM1944.06 698C1961.39 698 1975.12 692.267 1985.26 680.8C1995.66 669.333 2000.86 654 2000.86 634.8C2000.86 615.333 1995.66 599.733 1985.26 588C1974.86 576.267 1961.12 570.4 1944.06 570.4C1926.72 570.4 1912.86 576.133 1902.46 587.6C1892.32 599.067 1887.26 614.667 1887.26 634.4C1887.26 653.6 1892.46 669.067 1902.86 680.8C1913.26 692.267 1926.99 698 1944.06 698ZM2142.63 766C2131.69 766 2123.29 762 2117.43 754C2111.56 745.733 2108.63 734.267 2108.63 719.6V550C2108.63 535.333 2112.09 524.267 2119.03 516.8C2126.23 509.067 2136.49 505.2 2149.83 505.2H2229.43C2264.89 505.2 2291.56 512.4 2309.43 526.8C2327.56 541.2 2336.63 562.4 2336.63 590.4C2336.63 607.733 2332.49 622.667 2324.23 635.2C2316.23 647.733 2304.36 656.933 2288.63 662.8L2280.23 665.2L2339.43 738.4C2340.49 739.733 2339.29 742.8 2335.83 747.6C2332.36 752.133 2327.03 756.4 2319.83 760.4C2312.63 764.133 2303.83 766 2293.43 766C2281.69 766 2271.96 763.467 2264.23 758.4C2256.76 753.067 2248.63 744.267 2239.83 732L2200.23 680.8H2189.03V728.8C2189.03 740.8 2185.96 750 2179.83 756.4C2173.96 762.8 2165.29 766 2153.83 766H2142.63ZM2220.63 626.8C2232.36 626.8 2241.29 624.133 2247.43 618.8C2253.56 613.467 2256.63 606 2256.63 596.4C2256.63 576.133 2244.49 566 2220.23 566H2187.83V626.8H2220.63Z" fill="white"/>
</svg>
